<?xml version="1.0" standalone="no"?>
<!DOCTYPE svg PUBLIC "-//W3C//DTD SVG 20010904//EN"
 "http://www.w3.org/TR/2001/REC-SVG-20010904/DTD/svg10.dtd">
<svg version="1.0" xmlns="http://www.w3.org/2000/svg"
 width="700.000000pt" height="700.000000pt" viewBox="0 0 700.000000 700.000000"
 preserveAspectRatio="xMidYMid meet">
<metadata>
Created by potrace 1.11, written by Peter Selinger 2001-2013
</metadata>
<g transform="translate(0.000000,700.000000) scale(0.100000,-0.100000)"
fill="#000000" stroke="none">
<path d="M3325 6990 c-167 -40 -246 -169 -248 -405 -1 -55 2 -125 6 -155 4
-30 10 -70 12 -89 2 -18 7 -40 9 -50 3 -9 8 -32 11 -51 8 -48 60 -247 92 -350
21 -69 80 -236 202 -573 5 -13 17 13 40 85 18 57 37 114 42 128 31 91 114 401
143 535 117 529 89 816 -88 907 -44 23 -163 32 -221 18z"/>
<path d="M3352 5102 c-34 -103 -118 -353 -187 -557 -68 -203 -144 -440 -169
-525 l-43 -155 -94 -1 c-79 -1 -257 -10 -399 -19 -173 -11 -252 -17 -290 -20
-25 -2 -88 -7 -140 -10 -52 -4 -117 -9 -145 -11 -27 -2 -108 -6 -180 -10 -71
-3 -131 -7 -132 -8 -3 -2 472 -399 771 -645 83 -68 205 -164 271 -214 66 -50
122 -92 124 -94 2 -1 -1 -22 -8 -45 -7 -22 -14 -48 -16 -57 -14 -62 -76 -334
-85 -371 -6 -25 -12 -56 -15 -70 -10 -54 -17 -86 -90 -440 -42 -201 -80 -377
-85 -393 -5 -15 -6 -27 -2 -27 4 0 60 37 124 82 64 46 174 121 243 168 69 47
203 139 298 205 95 66 199 138 231 160 32 22 103 75 158 118 56 43 108 82 117
87 17 11 23 4 -92 103 -48 42 -107 120 -107 143 0 20 34 54 60 60 57 13 206
16 257 4 71 -15 95 -41 81 -83 -16 -45 -29 -63 -109 -143 l-70 -71 83 -60 c84
-61 507 -340 571 -378 28 -16 189 -120 366 -237 90 -60 165 -107 168 -105 2 2
-8 40 -21 83 -14 43 -68 232 -121 419 -101 358 -110 389 -175 605 -51 171
-113 350 -121 350 -3 0 -40 -22 -81 -50 -72 -48 -139 -78 -165 -74 -7 1 -17 2
-23 3 -19 2 -36 56 -33 101 9 119 76 285 119 296 49 12 87 -38 174 -233 l15
-33 111 93 c61 50 140 118 175 149 35 31 73 65 85 75 12 10 61 54 109 98 102
92 108 97 206 186 41 37 92 83 114 103 22 20 86 75 142 123 55 49 100 89 99
90 -1 2 -43 5 -92 8 -162 8 -298 16 -363 20 -35 3 -110 7 -165 11 -56 3 -123
7 -151 9 -188 13 -439 24 -576 24 l-116 1 -12 43 c-14 46 -151 397 -182 464
-10 24 -19 45 -19 48 0 3 -9 24 -19 48 -27 58 -192 455 -253 607 -27 69 -53
128 -57 132 -3 4 -35 -77 -69 -180z m615 -1175 c10 -13 38 -104 47 -152 19
-100 11 -159 -23 -168 -42 -11 -158 53 -248 136 -53 49 -76 90 -68 119 9 28
81 57 157 65 35 3 64 7 66 8 9 8 62 2 69 -8z m-867 -72 c118 -11 170 -44 156
-100 -13 -53 -163 -181 -246 -210 -35 -12 -41 -12 -61 4 -28 22 -36 98 -20
198 17 109 23 121 63 118 18 -2 67 -6 108 -10z m-180 -755 c43 -23 118 -204
127 -306 5 -58 4 -63 -19 -78 -39 -26 -106 -1 -255 94 -35 23 -30 60 29 190
45 99 74 124 118 100z"/>
<path d="M6525 4575 c-146 -35 -354 -140 -546 -275 -20 -14 -58 -40 -85 -59
-56 -40 -359 -282 -419 -335 l-40 -35 40 -2 c22 -1 69 -3 105 -5 190 -10 620
-4 775 11 278 27 490 94 573 182 54 58 67 90 67 173 0 65 -5 85 -36 150 -69
145 -168 211 -312 209 -40 -1 -95 -7 -122 -14z"/>
<path d="M190 4553 c-66 -17 -104 -44 -135 -96 -54 -93 -69 -250 -31 -337 54
-128 203 -226 426 -279 47 -11 103 -22 125 -25 22 -3 56 -8 75 -11 100 -16
325 -29 490 -28 148 0 420 7 420 10 0 1 -37 32 -82 68 -46 36 -90 72 -98 78
-8 7 -44 34 -80 62 -36 27 -67 52 -70 55 -3 3 -52 40 -110 82 -444 321 -761
464 -930 421z"/>
<path d="M4830 1461 c0 -15 15 -63 107 -346 179 -551 342 -884 505 -1029 69
-63 110 -81 183 -80 73 0 120 23 191 91 152 148 139 335 -41 574 -66 88 -179
206 -285 299 -34 30 -68 60 -74 65 -69 62 -211 169 -401 304 -88 63 -166 118
-172 124 -9 6 -13 6 -13 -2z"/>
<path d="M2395 1396 c-16 -13 -109 -81 -205 -153 -549 -408 -813 -700 -834
-923 -15 -158 168 -323 350 -315 180 8 337 198 489 590 53 138 130 382 160
512 2 10 21 83 40 162 20 79 35 144 33 146 -2 2 -16 -7 -33 -19z"/>
</g>
</svg>
